<svg width="19" height="28" viewBox="0 0 19 28" fill="none" xmlns="http://www.w3.org/2000/svg">
<path d="M13.3398 9.6123L6.42773 16.6445L6.41699 16.6562L6.40625 16.6689L6.02832 17.1064L6.00098 17.1387L5.97949 17.1738L5.75195 17.5469L5.70703 17.6211L5.68945 17.7061L5.61914 18.0469L5.60938 18.0967V18.7402L5.62402 18.8008L5.72168 19.1846L5.74121 19.2607L5.78223 19.3271L5.98242 19.6465L5.99316 19.6631L6.00488 19.6797L6.21094 19.9551L6.23145 19.9824L6.25488 20.0068L7.86035 21.6396L5.95215 23.5605L0.605469 18.1621L4.36914 10.54L5.79102 11.8945L6.63574 12.6992V6.02051L9.11133 1.11621L13.3398 9.6123Z" stroke="#06D0FF"/>
<path d="M12.6084 18.2383L12.6035 18.2031L12.5654 17.9375L12.5566 17.8721L12.5303 17.8105L12.3789 17.459L12.3711 17.4404L12.3613 17.4229L12.1719 17.0654L12.1377 17.002L12.0869 16.9502L10.3291 15.1553L14.1826 11.2881L17.6914 18.334L9.11621 26.7979L7.12207 24.8438L12.0859 19.8203L12.123 19.7822L12.1523 19.7373L12.3418 19.4395L12.3652 19.4014L12.3828 19.3594L12.5342 18.9863L12.5576 18.9277L12.5664 18.8652L12.6045 18.584L12.6084 18.5508V18.2383Z" stroke="#06D0FF"/>
</svg>
